<mxfile host="app.diagrams.net" modified="2024-03-21T03:06:12.908Z" agent="Mozilla/5.0 (Windows NT 10.0; Win64; x64) AppleWebKit/537.36 (KHTML, like Gecko) Chrome/122.0.0.0 Safari/537.36 Edg/122.0.0.0" etag="XIFHt9LCoqC1HsV9jhUm" version="24.0.7" type="github">
  <diagram name="第 1 页" id="x9pxvPYGlTklanN5yqRH">
    <mxGraphModel dx="1386" dy="751" grid="1" gridSize="10" guides="1" tooltips="1" connect="1" arrows="1" fold="1" page="1" pageScale="1" pageWidth="1600" pageHeight="1200" math="0" shadow="0">
      <root>
        <mxCell id="0" />
        <mxCell id="1" parent="0" />
        <mxCell id="IhYMLytgXsDMLATdTicJ-29" style="edgeStyle=orthogonalEdgeStyle;rounded=0;orthogonalLoop=1;jettySize=auto;html=1;entryX=0;entryY=0.5;entryDx=0;entryDy=0;strokeColor=#1E1EFE;align=center;verticalAlign=middle;fontFamily=Helvetica;fontSize=11;fontColor=default;labelBackgroundColor=default;endArrow=classic;exitX=0.5;exitY=0;exitDx=0;exitDy=0;" edge="1" parent="1" source="IhYMLytgXsDMLATdTicJ-1" target="IhYMLytgXsDMLATdTicJ-28">
          <mxGeometry relative="1" as="geometry" />
        </mxCell>
        <mxCell id="IhYMLytgXsDMLATdTicJ-1" value="gwjh" style="rounded=0;whiteSpace=wrap;html=1;" vertex="1" parent="1">
          <mxGeometry x="320" y="480" width="120" height="60" as="geometry" />
        </mxCell>
        <mxCell id="IhYMLytgXsDMLATdTicJ-22" style="edgeStyle=orthogonalEdgeStyle;rounded=0;orthogonalLoop=1;jettySize=auto;html=1;entryX=1;entryY=0.5;entryDx=0;entryDy=0;exitX=0.5;exitY=1;exitDx=0;exitDy=0;strokeColor=#1E1EFE;align=center;verticalAlign=middle;fontFamily=Helvetica;fontSize=11;fontColor=default;labelBackgroundColor=default;endArrow=classic;" edge="1" parent="1" source="IhYMLytgXsDMLATdTicJ-2" target="IhYMLytgXsDMLATdTicJ-21">
          <mxGeometry relative="1" as="geometry" />
        </mxCell>
        <mxCell id="IhYMLytgXsDMLATdTicJ-51" value="后台任务" style="edgeLabel;html=1;align=center;verticalAlign=middle;resizable=0;points=[];" vertex="1" connectable="0" parent="IhYMLytgXsDMLATdTicJ-22">
          <mxGeometry x="-0.2955" y="1" relative="1" as="geometry">
            <mxPoint as="offset" />
          </mxGeometry>
        </mxCell>
        <mxCell id="IhYMLytgXsDMLATdTicJ-46" style="edgeStyle=orthogonalEdgeStyle;rounded=0;orthogonalLoop=1;jettySize=auto;html=1;strokeColor=#1E1EFE;align=center;verticalAlign=middle;fontFamily=Helvetica;fontSize=11;fontColor=default;labelBackgroundColor=default;endArrow=classic;exitX=0.75;exitY=0;exitDx=0;exitDy=0;" edge="1" parent="1" source="IhYMLytgXsDMLATdTicJ-2" target="IhYMLytgXsDMLATdTicJ-45">
          <mxGeometry relative="1" as="geometry">
            <Array as="points">
              <mxPoint x="970" y="490" />
              <mxPoint x="970" y="375" />
              <mxPoint x="1290" y="375" />
            </Array>
          </mxGeometry>
        </mxCell>
        <mxCell id="IhYMLytgXsDMLATdTicJ-48" value="保存交换触发单位ID信息" style="edgeLabel;html=1;align=center;verticalAlign=middle;resizable=0;points=[];" vertex="1" connectable="0" parent="IhYMLytgXsDMLATdTicJ-46">
          <mxGeometry x="-0.0359" y="1" relative="1" as="geometry">
            <mxPoint x="67" y="1" as="offset" />
          </mxGeometry>
        </mxCell>
        <mxCell id="IhYMLytgXsDMLATdTicJ-63" style="edgeStyle=orthogonalEdgeStyle;rounded=0;orthogonalLoop=1;jettySize=auto;html=1;entryX=0;entryY=0.5;entryDx=0;entryDy=0;exitX=0.75;exitY=1;exitDx=0;exitDy=0;strokeColor=#FF0808;align=center;verticalAlign=middle;fontFamily=Helvetica;fontSize=11;fontColor=#000000;labelBackgroundColor=default;endArrow=classic;" edge="1" parent="1" source="IhYMLytgXsDMLATdTicJ-2" target="IhYMLytgXsDMLATdTicJ-16">
          <mxGeometry relative="1" as="geometry" />
        </mxCell>
        <mxCell id="IhYMLytgXsDMLATdTicJ-64" value="保存单位密码信息" style="edgeLabel;html=1;align=center;verticalAlign=middle;resizable=0;points=[];" vertex="1" connectable="0" parent="IhYMLytgXsDMLATdTicJ-63">
          <mxGeometry x="0.1486" y="-2" relative="1" as="geometry">
            <mxPoint x="33" as="offset" />
          </mxGeometry>
        </mxCell>
        <mxCell id="IhYMLytgXsDMLATdTicJ-2" value="gwcl" style="rounded=0;whiteSpace=wrap;html=1;" vertex="1" parent="1">
          <mxGeometry x="870" y="490" width="120" height="60" as="geometry" />
        </mxCell>
        <mxCell id="IhYMLytgXsDMLATdTicJ-13" style="edgeStyle=orthogonalEdgeStyle;rounded=0;orthogonalLoop=1;jettySize=auto;html=1;entryX=1;entryY=0.5;entryDx=0;entryDy=0;fontColor=#000000;strokeColor=#FF0808;" edge="1" parent="1" source="IhYMLytgXsDMLATdTicJ-67" target="IhYMLytgXsDMLATdTicJ-2">
          <mxGeometry relative="1" as="geometry">
            <Array as="points" />
          </mxGeometry>
        </mxCell>
        <mxCell id="IhYMLytgXsDMLATdTicJ-69" value="成功" style="edgeLabel;html=1;align=center;verticalAlign=middle;resizable=0;points=[];" vertex="1" connectable="0" parent="IhYMLytgXsDMLATdTicJ-13">
          <mxGeometry x="-0.0889" y="1" relative="1" as="geometry">
            <mxPoint as="offset" />
          </mxGeometry>
        </mxCell>
        <mxCell id="IhYMLytgXsDMLATdTicJ-12" value="zygl" style="rounded=0;whiteSpace=wrap;html=1;" vertex="1" parent="1">
          <mxGeometry x="1380" y="480" width="120" height="60" as="geometry" />
        </mxCell>
        <mxCell id="IhYMLytgXsDMLATdTicJ-16" value="gwclDB" style="rounded=0;whiteSpace=wrap;html=1;" vertex="1" parent="1">
          <mxGeometry x="1230" y="600" width="120" height="60" as="geometry" />
        </mxCell>
        <mxCell id="IhYMLytgXsDMLATdTicJ-27" style="edgeStyle=orthogonalEdgeStyle;rounded=0;orthogonalLoop=1;jettySize=auto;html=1;entryX=0.5;entryY=1;entryDx=0;entryDy=0;strokeColor=#1E1EFE;align=center;verticalAlign=middle;fontFamily=Helvetica;fontSize=11;fontColor=default;labelBackgroundColor=default;endArrow=classic;" edge="1" parent="1" source="IhYMLytgXsDMLATdTicJ-21" target="IhYMLytgXsDMLATdTicJ-1">
          <mxGeometry relative="1" as="geometry" />
        </mxCell>
        <mxCell id="IhYMLytgXsDMLATdTicJ-38" style="edgeStyle=orthogonalEdgeStyle;rounded=0;orthogonalLoop=1;jettySize=auto;html=1;exitX=0.5;exitY=0;exitDx=0;exitDy=0;entryX=0;entryY=0.5;entryDx=0;entryDy=0;strokeColor=#1E1EFE;align=center;verticalAlign=middle;fontFamily=Helvetica;fontSize=11;fontColor=default;labelBackgroundColor=default;endArrow=classic;" edge="1" parent="1" source="IhYMLytgXsDMLATdTicJ-21" target="IhYMLytgXsDMLATdTicJ-2">
          <mxGeometry relative="1" as="geometry">
            <Array as="points">
              <mxPoint x="720" y="520" />
            </Array>
          </mxGeometry>
        </mxCell>
        <mxCell id="IhYMLytgXsDMLATdTicJ-39" value="失败重试" style="edgeLabel;html=1;align=center;verticalAlign=middle;resizable=0;points=[];rounded=0;strokeColor=#1E1EFE;fontFamily=Helvetica;fontSize=11;fontColor=default;labelBackgroundColor=default;" vertex="1" connectable="0" parent="IhYMLytgXsDMLATdTicJ-38">
          <mxGeometry x="-0.3429" y="-2" relative="1" as="geometry">
            <mxPoint as="offset" />
          </mxGeometry>
        </mxCell>
        <mxCell id="IhYMLytgXsDMLATdTicJ-62" style="edgeStyle=orthogonalEdgeStyle;rounded=0;orthogonalLoop=1;jettySize=auto;html=1;entryX=0.5;entryY=1;entryDx=0;entryDy=0;strokeColor=#1E1EFE;align=center;verticalAlign=middle;fontFamily=Helvetica;fontSize=11;fontColor=default;labelBackgroundColor=default;endArrow=classic;exitX=0.5;exitY=1;exitDx=0;exitDy=0;" edge="1" parent="1" source="IhYMLytgXsDMLATdTicJ-21" target="IhYMLytgXsDMLATdTicJ-16">
          <mxGeometry relative="1" as="geometry" />
        </mxCell>
        <mxCell id="IhYMLytgXsDMLATdTicJ-65" value="保存公文交换单位收文信息" style="edgeLabel;html=1;align=center;verticalAlign=middle;resizable=0;points=[];" vertex="1" connectable="0" parent="IhYMLytgXsDMLATdTicJ-62">
          <mxGeometry x="-0.1811" y="-3" relative="1" as="geometry">
            <mxPoint as="offset" />
          </mxGeometry>
        </mxCell>
        <mxCell id="IhYMLytgXsDMLATdTicJ-21" value="根据单位信息拉取单位收文" style="rhombus;whiteSpace=wrap;html=1;" vertex="1" parent="1">
          <mxGeometry x="620" y="680" width="200" height="110" as="geometry" />
        </mxCell>
        <mxCell id="IhYMLytgXsDMLATdTicJ-30" style="edgeStyle=orthogonalEdgeStyle;rounded=0;orthogonalLoop=1;jettySize=auto;html=1;entryX=0.5;entryY=0;entryDx=0;entryDy=0;strokeColor=#1E1EFE;align=center;verticalAlign=middle;fontFamily=Helvetica;fontSize=11;fontColor=default;labelBackgroundColor=default;endArrow=classic;" edge="1" parent="1" source="IhYMLytgXsDMLATdTicJ-28" target="IhYMLytgXsDMLATdTicJ-2">
          <mxGeometry relative="1" as="geometry" />
        </mxCell>
        <mxCell id="IhYMLytgXsDMLATdTicJ-53" value="成功" style="edgeLabel;html=1;align=center;verticalAlign=middle;resizable=0;points=[];" vertex="1" connectable="0" parent="IhYMLytgXsDMLATdTicJ-30">
          <mxGeometry x="-0.3422" y="2" relative="1" as="geometry">
            <mxPoint as="offset" />
          </mxGeometry>
        </mxCell>
        <mxCell id="IhYMLytgXsDMLATdTicJ-31" style="edgeStyle=orthogonalEdgeStyle;rounded=0;orthogonalLoop=1;jettySize=auto;html=1;exitX=0.5;exitY=1;exitDx=0;exitDy=0;entryX=1;entryY=0.5;entryDx=0;entryDy=0;strokeColor=#1E1EFE;align=center;verticalAlign=middle;fontFamily=Helvetica;fontSize=11;fontColor=default;labelBackgroundColor=default;endArrow=classic;" edge="1" parent="1" source="IhYMLytgXsDMLATdTicJ-28" target="IhYMLytgXsDMLATdTicJ-1">
          <mxGeometry relative="1" as="geometry" />
        </mxCell>
        <mxCell id="IhYMLytgXsDMLATdTicJ-54" value="&lt;span style=&quot;color: rgba(0, 0, 0, 0); font-family: monospace; font-size: 0px; text-align: start; background-color: rgb(251, 251, 251);&quot;&gt;%3CmxGraphModel%3E%3Croot%3E%3CmxCell%20id%3D%220%22%2F%3E%3CmxCell%20id%3D%221%22%20parent%3D%220%22%2F%3E%3CmxCell%20id%3D%222%22%20value%3D%22%E5%A4%B1%E8%B4%A5%E9%87%8D%E8%AF%95%E6%9C%BA%E5%88%B6%22%20style%3D%22edgeLabel%3Bhtml%3D1%3Balign%3Dcenter%3BverticalAlign%3Dmiddle%3Bresizable%3D0%3Bpoints%3D%5B%5D%3Brounded%3D0%3BstrokeColor%3D%231E1EFE%3BfontFamily%3DHelvetica%3BfontSize%3D11%3BfontColor%3Ddefault%3BlabelBackgroundColor%3Ddefault%3B%22%20vertex%3D%221%22%20connectable%3D%220%22%20parent%3D%221%22%3E%3CmxGeometry%20x%3D%22716%22%20y%3D%22493%22%20as%3D%22geometry%22%2F%3E%3C%2FmxCell%3E%3C%2Froot%3E%3C%2FmxGraphModel%3E&lt;/span&gt;" style="edgeLabel;html=1;align=center;verticalAlign=middle;resizable=0;points=[];" vertex="1" connectable="0" parent="IhYMLytgXsDMLATdTicJ-31">
          <mxGeometry x="-0.0333" y="-1" relative="1" as="geometry">
            <mxPoint as="offset" />
          </mxGeometry>
        </mxCell>
        <mxCell id="IhYMLytgXsDMLATdTicJ-66" value="失败重试" style="edgeLabel;html=1;align=center;verticalAlign=middle;resizable=0;points=[];" vertex="1" connectable="0" parent="IhYMLytgXsDMLATdTicJ-31">
          <mxGeometry x="0.1364" y="-1" relative="1" as="geometry">
            <mxPoint as="offset" />
          </mxGeometry>
        </mxCell>
        <mxCell id="IhYMLytgXsDMLATdTicJ-28" value="触发拉取收文" style="rhombus;whiteSpace=wrap;html=1;" vertex="1" parent="1">
          <mxGeometry x="480" y="320" width="200" height="110" as="geometry" />
        </mxCell>
        <mxCell id="IhYMLytgXsDMLATdTicJ-45" value="redis" style="rounded=0;whiteSpace=wrap;html=1;" vertex="1" parent="1">
          <mxGeometry x="1230" y="280" width="120" height="60" as="geometry" />
        </mxCell>
        <mxCell id="IhYMLytgXsDMLATdTicJ-68" value="" style="edgeStyle=orthogonalEdgeStyle;rounded=0;orthogonalLoop=1;jettySize=auto;html=1;entryX=1;entryY=0.5;entryDx=0;entryDy=0;fontColor=#000000;strokeColor=#FF0808;align=center;verticalAlign=middle;fontFamily=Helvetica;fontSize=11;labelBackgroundColor=default;endArrow=classic;" edge="1" parent="1" source="IhYMLytgXsDMLATdTicJ-12" target="IhYMLytgXsDMLATdTicJ-67">
          <mxGeometry relative="1" as="geometry">
            <mxPoint x="1380" y="520" as="sourcePoint" />
            <mxPoint x="990" y="520" as="targetPoint" />
            <Array as="points">
              <mxPoint x="1210" y="520" />
            </Array>
          </mxGeometry>
        </mxCell>
        <mxCell id="IhYMLytgXsDMLATdTicJ-67" value="推送单位密码信息" style="rhombus;whiteSpace=wrap;html=1;" vertex="1" parent="1">
          <mxGeometry x="1080" y="465" width="200" height="110" as="geometry" />
        </mxCell>
        <mxCell id="IhYMLytgXsDMLATdTicJ-70" style="edgeStyle=orthogonalEdgeStyle;rounded=0;orthogonalLoop=1;jettySize=auto;html=1;entryX=0.5;entryY=0;entryDx=0;entryDy=0;exitX=0.5;exitY=0;exitDx=0;exitDy=0;strokeColor=#FF0808;align=center;verticalAlign=middle;fontFamily=Helvetica;fontSize=11;fontColor=#000000;labelBackgroundColor=default;endArrow=classic;" edge="1" parent="1" source="IhYMLytgXsDMLATdTicJ-67" target="IhYMLytgXsDMLATdTicJ-12">
          <mxGeometry relative="1" as="geometry" />
        </mxCell>
        <mxCell id="IhYMLytgXsDMLATdTicJ-71" value="失败重试" style="edgeLabel;html=1;align=center;verticalAlign=middle;resizable=0;points=[];" vertex="1" connectable="0" parent="IhYMLytgXsDMLATdTicJ-70">
          <mxGeometry x="-0.0095" y="-2" relative="1" as="geometry">
            <mxPoint as="offset" />
          </mxGeometry>
        </mxCell>
      </root>
    </mxGraphModel>
  </diagram>
</mxfile>
